<svg width="140" height="150" viewBox="0 0 267 222" fill="none" xmlns="http://www.w3.org/2000/svg">
  <path d="M31.594 222C65.666 222 91.271 192.414 106.552 169.034C104.694 174.207 103.661 179.379 103.661 184.345C103.661 198 111.508 207.724 126.995 207.724C148.265 207.724 170.979 189.103 182.749 169.034C181.923 171.931 181.51 174.621 181.51 177.103C181.51 186.621 186.879 192.621 197.824 192.621C232.309 192.621 267 131.586 267 78.207C267 36.621 245.937 0 193.074 0C100.151 0 0 113.379 0 186.621C0 215.379 15.487 222 31.594 222ZM161.067 73.655C161.067 63.31 166.849 56.069 175.316 56.069C183.575 56.069 189.357 63.31 189.357 73.655C189.357 84 183.575 91.448 175.316 91.448C166.849 91.448 161.067 84 161.067 73.655ZM205.258 73.655C205.258 63.31 211.039 56.069 219.506 56.069C227.766 56.069 233.548 63.31 233.548 73.655C233.548 84 227.766 91.448 219.506 91.448C211.039 91.448 205.258 84 205.258 73.655Z" fill="#FFFDF8"/>
</svg>
